<?xml version="1.0" encoding="UTF-8" standalone="no"?>
<svg
   version="1.1"
   viewBox="0 0 25587.053 18097.916"
   id="svg3"
   sodipodi:docname="health.svg"
   width="25587.053"
   height="18097.916"
   xmlns:inkscape="http://www.inkscape.org/namespaces/inkscape"
   xmlns:sodipodi="http://sodipodi.sourceforge.net/DTD/sodipodi-0.dtd"
   xmlns="http://www.w3.org/2000/svg"
   xmlns:svg="http://www.w3.org/2000/svg">
  <defs
     id="defs3" />
  <sodipodi:namedview
     id="namedview3"
     pagecolor="#505050"
     bordercolor="#eeeeee"
     borderopacity="1"
     inkscape:showpageshadow="0"
     inkscape:pageopacity="0"
     inkscape:pagecheckerboard="0"
     inkscape:deskcolor="#505050" />
  <path
     fill="#333333"
     d="m -7302.9518,-5138.111 c -2.75,10.12 -9.17,18.17 -16.58,25.29 q -20.98,20.17 -41.96,40.38 a 3.98,3.98 0 0 1 -5.54,0 q -22.45,-21.65 -45.23,-43.61 -4.74,-4.57 -9.17,-12.26 -8.94,-15.52 -2.67,-31.72 5.03,-13.02 19.42,-16.94 15.23,-4.16 27.75,3.73 6.65,4.2 12.21,9.51 a 0.74,0.75 44.2 0 0 1.05,-0.02 c 4.44,-4.54 10.1,-8.58 15.34,-11.28 7.11,-3.67 14.96,-4.07 22.72,-2.4 11.74,2.52 20.13,10.41 22.72,22.13 q 2.07,9.35 -0.06,17.19 z"
     id="path3" />
</svg>
