<?xml version="1.0" encoding="UTF-8" standalone="no"?>
<svg
   version="1.1"
   viewBox="0 0 26230.9 18241.855"
   id="svg4"
   sodipodi:docname="it.svg"
   width="26230.9"
   height="18241.855"
   xmlns:inkscape="http://www.inkscape.org/namespaces/inkscape"
   xmlns:sodipodi="http://sodipodi.sourceforge.net/DTD/sodipodi-0.dtd"
   xmlns="http://www.w3.org/2000/svg"
   xmlns:svg="http://www.w3.org/2000/svg">
  <defs
     id="defs4" />
  <sodipodi:namedview
     id="namedview4"
     pagecolor="#505050"
     bordercolor="#eeeeee"
     borderopacity="1"
     inkscape:showpageshadow="0"
     inkscape:pageopacity="0"
     inkscape:pagecheckerboard="0"
     inkscape:deskcolor="#505050" />
  <path
     fill="#333333"
     d="m -2769.187,-2371.2566 q -17.55,-0.11 -36.51,0.04 c -6.33,0.05 -12.03,-4.23 -12.02,-10.91 q 0.06,-36.44 -0.03,-75.07 c -0.01,-7.79 4.84,-12.29 12.49,-12.26 q 54.93,0.23 109.71,0.1 c 7.17,-0.02 11.46,5.02 11.63,12.34 q 0.01,0.13 -0.07,73.39 c -0.01,7.7 -4.72,12.46 -12.1,12.4 q -17.92,-0.14 -36.64,-0.02 a 0.57,0.56 84.8 0 0 -0.55,0.67 q 1.01,5.65 3.96,10.63 c 2.18,3.7 -1.29,6.69 -4.84,6.68 q -16.62,-0.05 -33.88,-0.01 c -4.33,0.01 -6.14,-3.75 -4.07,-7.41 1.65,-2.93 3.31,-6.58 3.5,-9.95 q 0.04,-0.61 -0.58,-0.62 z m 76.48,-87.21 a 2.05,2.05 0 0 0 -2.05,-2.05 h -112.14 a 2.05,2.05 0 0 0 -2.05,2.05 v 58.36 a 2.05,2.05 0 0 0 2.05,2.05 h 112.14 a 2.05,2.05 0 0 0 2.05,-2.05 z"
     id="path4" />
</svg>
