<?xml version="1.0" encoding="UTF-8" standalone="no"?>
<svg
   version="1.1"
   viewBox="0 0 29635.842 15956.41"
   id="svg5"
   sodipodi:docname="marketing.svg"
   width="29635.842"
   height="15956.41"
   xmlns:inkscape="http://www.inkscape.org/namespaces/inkscape"
   xmlns:sodipodi="http://sodipodi.sourceforge.net/DTD/sodipodi-0.dtd"
   xmlns="http://www.w3.org/2000/svg"
   xmlns:svg="http://www.w3.org/2000/svg">
  <defs
     id="defs5" />
  <sodipodi:namedview
     id="namedview5"
     pagecolor="#505050"
     bordercolor="#eeeeee"
     borderopacity="1"
     inkscape:showpageshadow="0"
     inkscape:pageopacity="0"
     inkscape:pagecheckerboard="0"
     inkscape:deskcolor="#505050" />
  <path
     fill="#333333"
     d="m -5203.1399,-2552.5901 h 132.95 a 0.4,0.4 0 0 1 0.4,0.4 l 0.01,8.2 a 0.4,0.4 0 0 1 -0.4,0.4 h -141.68 a 0.4,0.4 0 0 1 -0.4,-0.4 l 0.01,-106.29 a 0.4,0.4 0 0 1 0.4,-0.4 l 7.89,0.08 a 0.4,0.4 0 0 1 0.4,0.4 l 0.02,97.21 a 0.4,0.4 0 0 0 0.4,0.4 z"
     id="path4" />
  <path
     fill="#333333"
     d="m -5104.4699,-2630.1101 q -3.74,-3.62 -7.77,-7.7 -1.46,-1.46 -0.45,-3.34 0.26,-0.5 0.83,-0.5 l 31.34,0.01 q 1.97,0 1.97,1.97 l 0.04,30.3 a 1.98,1.93 63.6 0 1 -0.37,1.15 c -1,1.43 -2.37,1.38 -3.48,0.26 q -3.99,-4 -7.9,-7.87 a 0.81,0.81 0 0 0 -1.14,0.01 l -43.73,43.79 a 2.02,2.02 0 0 1 -2.86,0 l -16.01,-15.99 q -0.43,-0.44 -0.87,0 l -28.18,28.19 a 0.56,0.56 0 0 1 -0.79,0.01 l -12.42,-12.37 q -0.45,-0.45 0,-0.9 l 40.29,-40.31 q 1.52,-1.52 3.05,0 l 15.78,15.75 a 0.8,0.79 44.7 0 0 1.13,0 l 31.55,-31.56 q 0.45,-0.45 -0.01,-0.9 z"
     id="path5" />
</svg>
