<?xml version="1.0" encoding="UTF-8" standalone="no"?>
<svg
   version="1.1"
   viewBox="0 0 23795.045 17408.789"
   id="svg8"
   sodipodi:docname="pencil.svg"
   width="23795.045"
   height="17408.789"
   xmlns:inkscape="http://www.inkscape.org/namespaces/inkscape"
   xmlns:sodipodi="http://sodipodi.sourceforge.net/DTD/sodipodi-0.dtd"
   xmlns="http://www.w3.org/2000/svg"
   xmlns:svg="http://www.w3.org/2000/svg">
  <defs
     id="defs8" />
  <sodipodi:namedview
     id="namedview8"
     pagecolor="#505050"
     bordercolor="#eeeeee"
     borderopacity="1"
     inkscape:showpageshadow="0"
     inkscape:pageopacity="0"
     inkscape:pagecheckerboard="0"
     inkscape:deskcolor="#505050" />
  <g
     stroke-width="2"
     fill="none"
     stroke-linecap="butt"
     id="g4"
     transform="translate(-14726.161,-4701.2104)" />
  <path
     fill="#333333"
     d="m -14598.311,-4658.6104 a 0.29,0.29 0 0 1 0,-0.41 l 10.96,-10.97 a 9.3,9.3 0 0 1 13.16,0 l 15.75,15.75 a 9.3,9.3 0 0 1 0,13.16 l -10.97,10.96 a 0.29,0.29 0 0 1 -0.41,0 z"
     id="path6" />
  <path
     fill="#333333"
     d="m -14660.841,-4596.4704 57.43,-57.45 a 0.39,0.39 0 0 1 0.56,0 l 28.32,28.32 a 0.39,0.39 0 0 1 0,0.56 l -57.72,57.72 a 0.39,0.39 0 0 1 -0.27,0.11 h -28.09 a 0.39,0.39 0 0 1 -0.39,-0.39 l 0.05,-28.6 a 0.39,0.39 0 0 1 0.11,-0.27 z m 61.091,-45.6396 a 1.69,1.69 0 0 0 -2.39,0 l -37.901,37.9009 a 1.69,1.69 0 0 0 0,2.39 l 0.03,0.028 a 1.69,1.69 0 0 0 2.39,0 l 37.9,-37.9009 a 1.69,1.69 0 0 0 0,-2.39 z m -44.131,56.9096 a 0.39,0.39 0 0 1 0.39,0.39 l -0.04,8.21 a 0.39,0.39 0 0 0 0.39,0.39 h 7.31 a 0.39,0.39 0 0 0 0.27,-0.11 l 5.94,-5.96 a 0.39,0.39 0 0 0 -0.01,-0.56 l -16,-15.98 a 0.39,0.39 0 0 0 -0.56,0 l -5.85,5.83 a 0.39,0.39 0 0 0 -0.11,0.27 l -0.16,7.1 a 0.39,0.39 0 0 0 0.39,0.4 z"
     id="path7" />
</svg>
